<svg aria-hidden="true" style="position: absolute; width: 0; height: 0; overflow: hidden;" version="1.1" xmlns="http://www.w3.org/2000/svg" xmlns:xlink="http://www.w3.org/1999/xlink">
<defs>
<symbol id="icon-profile" viewBox="0 0 32 32">
<path fill="#99baed" style="fill: var(--color1, #99baed)" d="M15.996 20.233c-5.751 0-10.663 0.907-10.663 4.533 0 3.628 4.881 4.567 10.663 4.567 5.751 0 10.663-0.905 10.663-4.533s-4.88-4.567-10.663-4.567z"></path>
<path fill="#a4a4a4" style="fill: var(--color2, #a4a4a4)" opacity="0.4" d="M15.996 16.778c3.917 0 7.056-3.14 7.056-7.056s-3.139-7.056-7.056-7.056c-3.916 0-7.056 3.14-7.056 7.056s3.14 7.056 7.056 7.056z"></path>
</symbol>
<symbol id="icon-scissors-1" viewBox="0 0 32 32">
<path fill="#99baed" style="fill: var(--color1, #99baed)" d="M15.868 2.439c-1.869 0.163-3.289 1.814-3.126 3.683l0.841 9.611-3.18 1.482c-1.065-1.85-3.387-2.61-5.358-1.691-2.081 0.971-2.981 3.444-2.011 5.525s3.444 2.982 5.526 2.011c1.428-0.666 2.3-2.040 2.393-3.509l3.894-1.816 0.374 4.28c-1.226 0.815-1.98 2.257-1.843 3.827 0.2 2.288 2.217 3.979 4.504 3.78s3.98-2.217 3.78-4.504c-0.19-2.166-2.008-3.797-4.143-3.795l-0.306-3.495 8.743-4.077c1.701-0.793 2.419-2.848 1.626-4.548l-10.688 4.984-1.028-11.748zM8.683 20.367c-0.595 1.031-1.913 1.384-2.944 0.789s-1.384-1.913-0.789-2.944c0.595-1.031 1.913-1.384 2.944-0.789s1.384 1.913 0.789 2.944zM19.385 26.546c-0.595 1.031-1.913 1.384-2.944 0.789s-1.384-1.913-0.789-2.944c0.595-1.031 1.913-1.384 2.944-0.789s1.384 1.913 0.789 2.944z"></path>
</symbol>
<symbol id="icon-trimer" viewBox="0 0 19 32">
<path fill="#008fdd" style="fill: var(--color3, #008fdd)" d="M12.545 3.77c0 0.281-0.114 0.536-0.298 0.72s-0.439 0.298-0.72 0.298l-4.364 0c-0.27 0-0.529-0.107-0.72-0.298s-0.298-0.45-0.298-0.72l0-3.345-6 0-0 18.967c0 2.458 0.957 4.768 2.695 6.506 1.495 1.495 3.415 2.412 5.487 2.639v2.427c0 0.563 0.456 1.019 1.019 1.019 0.281 0 0.536-0.114 0.72-0.298s0.298-0.439 0.298-0.72v-2.427c2.072-0.227 3.992-1.143 5.487-2.639 1.738-1.738 2.694-4.048 2.695-6.506v-18.967h-6v3.345zM12.545 15.573l-0 4.364c-0 0.855-0.333 1.659-0.937 2.263s-1.408 0.937-2.263 0.937-1.659-0.333-2.263-0.937c-0.604-0.604-0.937-1.408-0.937-2.263v-4.364c0-0.855 0.333-1.659 0.937-2.263s1.408-0.938 2.263-0.938c0.855 0 1.659 0.333 2.263 0.937s0.937 1.408 0.937 2.263z"></path>
</symbol>
<symbol id="icon-notification" viewBox="0 0 33 32">
<path fill="#99baed" style="fill: var(--color1, #99baed)" d="M31.555 19.177c-1.411-1.647-2.052-3.075-2.052-5.5v-0.825c0-3.16-0.727-5.197-2.309-7.233-2.437-3.162-6.541-5.068-10.557-5.068h-0.171c-3.932 0-7.907 1.818-10.387 4.852-1.668 2.077-2.48 4.201-2.48 7.449v0.825c0 2.425-0.599 3.853-2.052 5.5-1.069 1.214-1.411 2.773-1.411 4.461 0 1.69 0.555 3.291 1.668 4.592 1.453 1.56 3.504 2.555 5.6 2.729 3.034 0.346 6.068 0.476 9.147 0.476 3.077 0 6.111-0.218 9.147-0.476 2.094-0.173 4.146-1.169 5.598-2.729 1.111-1.301 1.668-2.902 1.668-4.592 0-1.688-0.342-3.248-1.411-4.461z"></path>
</symbol>
<symbol id="icon-scissors" viewBox="0 0 28 32">
<path fill="#008fdd" style="fill: var(--color3, #008fdd)" d="M4.868-0.002c-2.088 1.462-2.639 4.37-1.176 6.459l7.52 10.74-2.735 3.905c-2.511-1.454-5.759-0.77-7.455 1.651-1.79 2.557-1.169 6.079 1.388 7.87s6.080 1.169 7.87-1.388c1.228-1.754 1.32-3.964 0.432-5.756l3.349-4.783 3.349 4.783c-0.889 1.792-0.796 4.002 0.432 5.756 1.79 2.557 5.313 3.177 7.87 1.388s3.178-5.313 1.388-7.87c-1.695-2.421-4.944-3.105-7.454-1.651l-2.735-3.905 7.52-10.74c1.463-2.089 0.912-4.996-1.176-6.459l-9.192 13.129-9.193-13.129zM8.593 25.981c0 1.618-1.312 2.929-2.929 2.929s-2.929-1.312-2.929-2.929c0-1.618 1.312-2.929 2.929-2.929s2.929 1.311 2.929 2.929zM25.388 25.981c0 1.618-1.312 2.929-2.929 2.929s-2.929-1.312-2.929-2.929c0-1.618 1.312-2.929 2.929-2.929s2.929 1.311 2.929 2.929z"></path>
</symbol>
<symbol id="icon-cleanser-1" viewBox="0 0 32 32">
<path fill="#008fdd" style="fill: var(--color3, #008fdd)" d="M3.75 0v3.75h-0.938v1.875h7.5v-1.875h-0.938v-1.875h4.299l1.6 1.6 1.326-1.326-2.15-2.15h-10.701z"></path>
<path fill="#008fdd" style="fill: var(--color3, #008fdd)" d="M22.563 25.376c0 0.516 0.42 0.937 0.938 0.937s0.937-0.42 0.937-0.938c-0.008-0.287-0.398-1.104-0.937-2.012-0.54 0.91-0.93 1.727-0.938 2.013z"></path>
<path fill="#008fdd" style="fill: var(--color3, #008fdd)" d="M28.25 15.063v-1.875h-9.5v1.875h-1.517c-1.61 3.253-2.233 6.197-2.233 8.438 0 2.238 0.621 5.244 2.233 8.5h12.534c1.61-3.253 2.233-6.26 2.233-8.5 0-2.238-0.621-5.181-2.233-8.438h-1.517zM23.5 28.188c-1.551 0-2.813-1.262-2.813-2.813 0-1.198 1.427-3.394 2.041-4.283l0.772-1.117 0.772 1.117c0.613 0.889 2.041 3.084 2.041 4.283 0 1.551-1.262 2.813-2.812 2.813z"></path>
<path fill="#008fdd" style="fill: var(--color3, #008fdd)" d="M18.75 5.625h9.5v5.687h-9.5v-5.687z"></path>
<path fill="#008fdd" style="fill: var(--color3, #008fdd)" d="M5.625 21.626c0 0.516 0.42 0.937 0.938 0.937s0.938-0.42 0.938-0.938c-0.008-0.288-0.398-1.104-0.938-2.012-0.54 0.91-0.93 1.727-0.938 2.013z"></path>
<path fill="#008fdd" style="fill: var(--color3, #008fdd)" d="M0 28.188h13.125v3.813h-13.125v-3.813z"></path>
<path fill="#008fdd" style="fill: var(--color3, #008fdd)" d="M0 7.5h13.125v3.812h-13.125v-3.812z"></path>
<path fill="#008fdd" style="fill: var(--color3, #008fdd)" d="M13.125 13.188h-13.125v13.125h13.125v-13.125zM6.563 24.437c-1.551 0-2.813-1.262-2.813-2.812 0-1.198 1.427-3.394 2.041-4.283l0.772-1.117 0.772 1.117c0.613 0.889 2.041 3.084 2.041 4.283 0 1.551-1.262 2.812-2.812 2.812z"></path>
</symbol>
<symbol id="icon-facebook" viewBox="0 0 16 32">
<path fill="#fff" style="fill: var(--color4, #fff)" d="M13.079 5.313h2.921v-5.088c-0.504-0.069-2.237-0.225-4.256-0.225-4.212 0-7.097 2.649-7.097 7.519v4.481h-4.648v5.688h4.648v14.312h5.698v-14.311h4.46l0.708-5.688h-5.169v-3.919c0.001-1.644 0.444-2.769 2.734-2.769z"></path>
</symbol>
<symbol id="icon-twiter" viewBox="0 0 39 32">
<path fill="#fff" style="fill: var(--color4, #fff)" d="M39.006 3.752c-1.451 0.636-2.996 1.058-4.608 1.263 1.658-0.99 2.923-2.545 3.518-4.42-1.546 0.922-3.252 1.572-5.071 1.936-1.468-1.563-3.559-2.53-5.841-2.53-4.427 0-7.991 3.593-7.991 7.999 0 0.634 0.054 1.243 0.185 1.824-6.648-0.324-12.531-3.511-16.482-8.364-0.69 1.197-1.095 2.567-1.095 4.042 0 2.769 1.426 5.224 3.552 6.646-1.285-0.024-2.545-0.397-3.613-0.985 0 0.024 0 0.056 0 0.088 0 3.886 2.772 7.114 6.407 7.857-0.651 0.178-1.36 0.263-2.097 0.263-0.512 0-1.029-0.029-1.514-0.137 1.036 3.167 3.976 5.495 7.472 5.57-2.721 2.128-6.175 3.411-9.915 3.411-0.656 0-1.285-0.029-1.914-0.11 3.542 2.284 7.74 3.589 12.267 3.589 14.715 0 22.76-12.189 22.76-22.755 0-0.354-0.012-0.695-0.029-1.034 1.587-1.126 2.92-2.533 4.008-4.152z"></path>
</symbol>
<symbol id="icon-google" viewBox="0 0 30 32">
<path fill="#fff" style="fill: var(--color4, #fff)" d="M25.937 13.099v-3.93h-2.62v3.93h-3.93v2.62h3.93v3.93h2.62v-3.93h3.93v-2.62h-3.93zM15.85 17.553l-1.441-1.048c-0.524-0.393-1.048-0.917-1.048-1.834s0.655-1.703 1.31-2.096c1.703-1.31 3.406-2.751 3.406-5.633 0-2.751-1.703-4.323-2.62-5.109h2.227l1.572-1.834h-8.122c-5.764 0-8.646 3.668-8.646 7.597 0 3.013 2.358 6.288 6.55 6.288h1.048c-0.131 0.393-0.524 1.048-0.524 1.703 0 1.31 0.524 1.834 1.179 2.62-1.834 0.131-5.24 0.524-7.729 2.096-2.358 1.441-3.013 3.406-3.013 4.847 0 3.013 2.751 5.895 8.646 5.895 7.074 0 10.48-3.93 10.48-7.728-0-2.751-1.441-4.192-3.275-5.764zM5.895 5.633c0-2.882 1.703-4.192 3.537-4.192 3.406 0 5.24 4.585 5.24 7.205 0 3.406-2.751 4.061-3.799 4.061-3.275 0-4.978-4.061-4.978-7.074zM10.61 29.211c-4.323 0-7.074-1.965-7.074-4.847s2.62-3.799 3.406-4.192c1.703-0.524 3.93-0.655 4.323-0.655s0.655 0 0.917 0c3.144 2.227 4.454 3.144 4.454 5.24 0 2.489-2.489 4.454-6.026 4.454z"></path>
</symbol>
<symbol id="icon-bells" viewBox="0 0 64 32">
<path fill="#aeaeae" style="fill: var(--color5, #aeaeae)" opacity="0.4" d="M50.747 3.465c-4.666-0.997-33.097-0.997-37.763 0-3.989 0.921-8.302 3.064-8.302 7.764 0.232 4.484 2.857 8.441 6.493 10.951l-0.009 0.009c4.703 3.666 10.222 5.997 16.001 6.834 3.080 0.423 6.215 0.404 9.406 0 5.77-0.837 11.289-3.168 15.992-6.834l-0.009-0.009c3.636-2.51 6.262-6.467 6.493-10.951 0-4.7-4.313-6.843-8.302-7.764z"></path>
</symbol>
<symbol id="icon-circle-right" viewBox="0 0 32 32">
<path d="M16 0c-8.837 0-16 7.163-16 16s7.163 16 16 16 16-7.163 16-16-7.163-16-16-16zM16 29c-7.18 0-13-5.82-13-13s5.82-13 13-13 13 5.82 13 13-5.82 13-13 13z"></path>
<path d="M11.086 22.086l2.829 2.829 8.914-8.914-8.914-8.914-2.828 2.828 6.086 6.086z"></path>
</symbol>
<symbol id="icon-circle-left" viewBox="0 0 32 32">
<path d="M16 32c8.837 0 16-7.163 16-16s-7.163-16-16-16-16 7.163-16 16 7.163 16 16 16zM16 3c7.18 0 13 5.82 13 13s-5.82 13-13 13-13-5.82-13-13 5.82-13 13-13z"></path>
<path d="M20.914 9.914l-2.829-2.829-8.914 8.914 8.914 8.914 2.828-2.828-6.086-6.086z"></path>
</symbol>
</defs>
</svg>